<svg xmlns="http://www.w3.org/2000/svg" width="24" height="24" fill="none"><path fill="#fff" fill-rule="evenodd" d="M21.8 15.927s.2-1.62.2-3.238v-1.517c0-1.62-.2-3.237-.2-3.237s-.195-1.378-.795-1.986c-.686-.718-1.446-.792-1.876-.833L19 5.103C16.202 4.9 12.004 4.9 12.004 4.9h-.008S7.797 4.9 5 5.103l-.128.013c-.43.041-1.19.115-1.876.833-.6.608-.795 1.986-.795 1.986S2 9.553 2 11.172v1.517c0 1.619.2 3.238.2 3.238s.195 1.377.795 1.985c.63.66 1.425.755 1.932.817.104.012.197.023.273.038 1.6.152 6.8.2 6.8.2s4.203-.007 7.001-.21l.128-.012c.43-.042 1.19-.115 1.876-.833.6-.608.795-1.985.795-1.985Zm-6.2-4.199-5.599 2.901L10 8.807l5.6 2.921Z" clip-rule="evenodd"/></svg>