<svg xmlns="http://www.w3.org/2000/svg" width="24" height="24" fill="none"><path fill="#fff" fill-rule="evenodd" d="M17.041 15.187a9.59 9.59 0 0 1-2.973 1.232l2.863 2.862a1.499 1.499 0 1 1-2.121 2.121l-2.814-2.813-2.812 2.813a1.498 1.498 0 0 1-2.122 0 1.5 1.5 0 0 1 0-2.12l2.862-2.863a9.603 9.603 0 0 1-2.973-1.232 1.5 1.5 0 0 1 1.598-2.54 6.5 6.5 0 0 0 6.894 0 1.5 1.5 0 0 1 1.598 2.54Zm-2.92-8.065c0-1.17-.95-2.12-2.12-2.12-1.168 0-2.12.95-2.12 2.12 0 1.168.952 2.119 2.12 2.119 1.17 0 2.12-.951 2.12-2.12Zm3 0a5.125 5.125 0 0 1-5.12 5.118 5.125 5.125 0 0 1-5.12-5.119A5.126 5.126 0 0 1 12 2.001a5.126 5.126 0 0 1 5.12 5.12Z" clip-rule="evenodd"/></svg>